<svg xmlns="http://www.w3.org/2000/svg" xmlns:xlink="http://www.w3.org/1999/xlink" width="30" height="30" viewBox="0 0 30 30">
  <defs>
    <clipPath id="clip-path">
      <rect id="Rectangle_9" data-name="Rectangle 9" width="30" height="30" transform="translate(516 39)" fill="#222c47" stroke="#707070" stroke-width="1"/>
    </clipPath>
    <clipPath id="clip-path-2">
      <rect id="Rectangle_10" data-name="Rectangle 10" width="30" height="26" fill="#222c47"/>
    </clipPath>
  </defs>
  <g id="Mask_Group_6" data-name="Mask Group 6" transform="translate(-516 -39)" clip-path="url(#clip-path)">
    <g id="Group_61" data-name="Group 61" transform="translate(516 41)">
      <g id="Group_60" data-name="Group 60" clip-path="url(#clip-path-2)">
        <path id="Path_48" data-name="Path 48" d="M20.694,26.229c.3.752.563,1.524.918,2.249a.756.756,0,0,0,1.106.343.844.844,0,0,0,.439-1.109c-.172-.5-.4-.988-.626-1.539,2.183,0,4.29-.026,6.4.014a1.241,1.241,0,0,1,1.034,1.629q-1.114,5-2.238,10-.491,2.193-.986,4.386a1.315,1.315,0,0,1-1.45,1.183q-10.286.005-20.572,0A1.31,1.31,0,0,1,3.264,42.2Q1.648,35.01.04,27.814a1.241,1.241,0,0,1,1.036-1.628c2.105-.04,4.212-.014,6.395-.014-.2.5-.389.932-.563,1.372a.9.9,0,0,0,.429,1.3c.478.206.917.007,1.167-.579.286-.671.536-1.358.8-2.039l-.008,0a3.174,3.174,0,0,1,.455-.065q5.246-.006,10.493,0a3.124,3.124,0,0,1,.455.065ZM8.853,35.266c0,1.043-.009,2.087,0,3.13.008.692.319,1.045.87,1.043s.86-.354.864-1.05q.015-3.13,0-6.261c0-.668-.331-1.073-.842-1.091-.531-.018-.888.4-.894,1.1-.01,1.043,0,2.087,0,3.13m7.018,0c0-1.044.008-2.087,0-3.131-.007-.693-.363-1.116-.894-1.1-.511.018-.839.423-.842,1.091q-.011,3.1,0,6.2c0,.744.3,1.108.866,1.11s.865-.36.872-1.1c.009-1.023,0-2.047,0-3.07m5.277-.006c0-1.043.008-2.087,0-3.13-.007-.668-.331-1.073-.842-1.091-.531-.018-.891.4-.894,1.1q-.012,3.1,0,6.2c0,.743.3,1.105.872,1.1s.859-.366.865-1.11c.009-1.023,0-2.047,0-3.07" transform="translate(0 -17.391)" fill="#222c47"/>
        <path id="Path_49" data-name="Path 49" d="M24.945,8.867l-1.727-.188c.05-.151.084-.28.135-.4Q24.947,4.514,26.541.751c.178-.421.454-.777.9-.694a1.232,1.232,0,0,1,.778.589,1.285,1.285,0,0,1-.1.9c-.894,2.148-1.812,4.287-2.73,6.424-.132.307-.3.6-.456.9l.007,0" transform="translate(-15.639 -0.03)" fill="#222c47"/>
        <path id="Path_50" data-name="Path 50" d="M56.471,8.841a4.46,4.46,0,0,1-.3-.508q-1.455-3.4-2.9-6.808a2.557,2.557,0,0,1-.134-.332A.9.9,0,0,1,53.678.07a.792.792,0,0,1,1.077.442c.319.662.59,1.348.878,2.025q1.182,2.772,2.361,5.545c.075.176.133.359.21.567l-1.74.189.008,0" transform="translate(-35.77 0)" fill="#222c47"/>
      </g>
    </g>
  </g>
</svg>
