<svg xmlns="http://www.w3.org/2000/svg" xmlns:xlink="http://www.w3.org/1999/xlink" width="15" height="15" viewBox="0 0 15 15">
  <defs>
    <clipPath id="clip-path">
      <rect id="Rectangle_17" data-name="Rectangle 17" width="15" height="15" transform="translate(516 39)" fill="#fff"/>
    </clipPath>
    <clipPath id="clip-path-2">
      <rect id="Rectangle_16" data-name="Rectangle 16" width="15" height="13" fill="#fff"/>
    </clipPath>
  </defs>
  <g id="Mask_Group_7" data-name="Mask Group 7" transform="translate(-516 -39)" clip-path="url(#clip-path)">
    <g id="Group_77" data-name="Group 77" transform="translate(516 40)">
      <g id="Group_76" data-name="Group 76" transform="translate(0 0)" clip-path="url(#clip-path-2)">
        <path id="Path_55" data-name="Path 55" d="M10.347,26.2c.15.376.282.762.459,1.124a.378.378,0,0,0,.553.172.422.422,0,0,0,.219-.555c-.086-.252-.2-.494-.313-.769,1.092,0,2.145-.013,3.2.007a.62.62,0,0,1,.517.814q-.557,2.5-1.119,5-.246,1.1-.493,2.193a.658.658,0,0,1-.725.591q-5.143,0-10.286,0a.655.655,0,0,1-.724-.592q-.808-3.6-1.612-7.2a.62.62,0,0,1,.518-.814c1.053-.02,2.106-.007,3.2-.007-.1.248-.195.466-.282.686a.451.451,0,0,0,.215.651c.239.1.459,0,.584-.29.143-.336.268-.679.4-1.019h0a1.587,1.587,0,0,1,.228-.032q2.623,0,5.246,0a1.562,1.562,0,0,1,.228.033ZM4.426,30.715c0,.522,0,1.044,0,1.565,0,.346.159.523.435.522s.43-.177.432-.525q.007-1.565,0-3.13c0-.334-.166-.536-.421-.545s-.444.2-.447.549c0,.522,0,1.043,0,1.565m3.509,0c0-.522,0-1.044,0-1.565,0-.347-.182-.558-.447-.548s-.419.212-.421.546q-.006,1.55,0,3.1c0,.372.15.554.433.555s.432-.18.436-.552c0-.512,0-1.023,0-1.535m2.639,0c0-.522,0-1.043,0-1.565,0-.334-.166-.536-.421-.545s-.446.2-.447.549q-.006,1.55,0,3.1c0,.372.151.553.436.552s.429-.183.433-.555c0-.512,0-1.024,0-1.535" transform="translate(0 -21.777)" fill="#fff"/>
        <path id="Path_56" data-name="Path 56" d="M24.082,4.456l-.864-.094c.025-.075.042-.14.068-.2Q24.082,2.279,24.88.4c.089-.21.227-.389.452-.347a.616.616,0,0,1,.389.295.642.642,0,0,1-.05.452c-.447,1.074-.906,2.143-1.365,3.212-.066.154-.151.3-.228.448h0" transform="translate(-19.429 -0.037)" fill="#fff"/>
        <path id="Path_57" data-name="Path 57" d="M54.787,4.42a2.23,2.23,0,0,1-.149-.254q-.727-1.7-1.449-3.4A1.279,1.279,0,0,1,53.123.6a.451.451,0,0,1,.268-.561.4.4,0,0,1,.538.221c.159.331.295.674.439,1.012q.591,1.386,1.18,2.772c.037.088.067.18.1.283l-.87.095,0,0" transform="translate(-44.437 0)" fill="#fff"/>
      </g>
    </g>
  </g>
</svg>
