<svg xmlns="http://www.w3.org/2000/svg" xmlns:xlink="http://www.w3.org/1999/xlink" width="15" height="15" viewBox="0 0 15 15">
  <defs>
    <clipPath id="clip-path">
      <rect id="Rectangle_5" data-name="Rectangle 5" width="15" height="15" transform="translate(516 39)" fill="#222c47" stroke="#707070" stroke-width="1"/>
    </clipPath>
  </defs>
  <g id="Mask_Group_5" data-name="Mask Group 5" transform="translate(-516 -39)" clip-path="url(#clip-path)">
    <g id="Group_57" data-name="Group 57" transform="translate(258 -26.652)">
      <path id="Path_4" data-name="Path 4" d="M271.111,68.713a1.006,1.006,0,1,0,1.005,1.005A1.005,1.005,0,0,0,271.111,68.713Z" transform="translate(-1.715 -0.434)" fill="#222c47"/>
      <path id="Path_5" data-name="Path 5" d="M266.642,70a4.222,4.222,0,1,0,4.222,4.222A4.227,4.227,0,0,0,266.642,70Zm0,6.927a2.7,2.7,0,1,1,2.7-2.705A2.707,2.707,0,0,1,266.642,76.929Z" transform="translate(-1.089 -1.072)" fill="#222c47"/>
      <path id="Path_6" data-name="Path 6" d="M268.494,80.652h-5.988A4.511,4.511,0,0,1,258,76.147V70.158a4.511,4.511,0,0,1,4.506-4.506h5.988A4.511,4.511,0,0,1,273,70.158v5.989A4.511,4.511,0,0,1,268.494,80.652Zm-5.988-13.589a3.1,3.1,0,0,0-3.095,3.095v5.989a3.1,3.1,0,0,0,3.095,3.094h5.988a3.1,3.1,0,0,0,3.095-3.094V70.158a3.1,3.1,0,0,0-3.095-3.095Z" fill="#222c47"/>
    </g>
  </g>
</svg>
