<svg id="scroll-down" xmlns="http://www.w3.org/2000/svg" width="19" height="30" viewBox="0 0 19 30">
  <path id="Path_16" data-name="Path 16" d="M12.019,29.7a9.477,9.477,0,0,0,4.192-2.5A9.754,9.754,0,0,0,19,20.354V9.688a9.754,9.754,0,0,0-2.789-6.843,9.339,9.339,0,0,0-13.422,0A9.758,9.758,0,0,0,0,9.688V20.352a9.754,9.754,0,0,0,2.789,6.843,9.443,9.443,0,0,0,5,2.688,11.448,11.448,0,0,0,4.228-.188ZM9.392,22.476A1.832,1.832,0,0,0,11.2,20.632v-1.9a1.808,1.808,0,1,0-3.615,0v1.9a1.83,1.83,0,0,0,1.808,1.843Zm5.231,3.1a7.121,7.121,0,0,1-10.247,0,7.453,7.453,0,0,1-2.133-5.225V9.688A7.447,7.447,0,0,1,4.377,4.463a7.121,7.121,0,0,1,10.247,0,7.453,7.453,0,0,1,2.133,5.225V20.352a7.448,7.448,0,0,1-2.133,5.227Z" fill="#222c47"/>
</svg>
